<?xml version="1.0" encoding="UTF-8" standalone="no"?>
<svg
   viewBox="0 0 1000 1000"
   version="1.1"
   id="svg5"
   sodipodi:docname="paper.svg"
   inkscape:version="1.3.1 (9b9bdc1480, 2023-11-25, custom)"
   xmlns:inkscape="http://www.inkscape.org/namespaces/inkscape"
   xmlns:sodipodi="http://sodipodi.sourceforge.net/DTD/sodipodi-0.dtd"
   xmlns="http://www.w3.org/2000/svg"
   xmlns:svg="http://www.w3.org/2000/svg">
  <defs
     id="defs5" />
  <sodipodi:namedview
     id="namedview5"
     pagecolor="#ffffff"
     bordercolor="#000000"
     borderopacity="0.25"
     inkscape:showpageshadow="2"
     inkscape:pageopacity="0.0"
     inkscape:pagecheckerboard="0"
     inkscape:deskcolor="#d1d1d1"
     inkscape:zoom="0.66856946"
     inkscape:cx="955.02418"
     inkscape:cy="379.16778"
     inkscape:window-width="3840"
     inkscape:window-height="2091"
     inkscape:window-x="0"
     inkscape:window-y="0"
     inkscape:window-maximized="1"
     inkscape:current-layer="svg5" />
  <path
     d="m 379.6654,294 -1,1 v 7 h 3 v -1 h 1 v -3 l 1,-1 1,-1 v -2 q 0,-1 2,-4 2,-4 8,-8 l 5,-4 3,-2 q 2,-1 2,-3 0,-1 -4,0 -5,1 -9,5 -5,3 -8,8 -3,6 -4,8 z"
     fill="#1f1f1f"
     stroke="#1f1f1f"
     id="path1"
     style="fill-rule:evenodd" />
  <path
     d="m 267.6654,118 v -2 l -3,1 q -2,1 -4,3 -2,2 -6,6 -5,4 -8,10 -4,5 -7,20 -3,14 -3,30 0,16 2,28 2,13 8,26 6,14 22,36 16,23 20,27 3,5 4,5 1,0 10,10 8,10 12,14 5,4 11,10 5,6 7,9 1,3 2,3 2,1 2,2 0,1 4,4 4,4 14,12 10,8 8,14 0,6 -2,6 -1,1 -4,8 -2,7 -6,15 -4,8 -10,26 -5,18 -6,18 -1,0 -3,13 -1,13 -3,40 0,28 2,44 2,16 1,58 -1,41 -1,74 -2,32 0,38 0,7 3,14 2,6 4,8 1,2 2,4 0,1 2,2 3,1 5,3 2,3 8,5 6,2 14,3 7,1 13,1 h 7 v 5 q 0,4 0,17 0,12 1,28 1,17 5,24 4,6 8,12 6,5 12,8 7,2 18,2 11,0 19,-2 8,-3 9,-4 0,-2 4,-3 4,-1 5,3 1,3 2,3 1,0 1,1 0,2 1,2 1,0 1,2 0,1 1,1 1,0 3,5 1,5 4,7 2,2 12,8 10,5 18,6 8,1 12,-1 4,0 14,-5 9,-4 9,-5 0,-1 1,-1 1,-1 5,-5 5,-4 6,-8 2,-3 3,-3 1,0 4,-9 3,-9 14,-9 10,-1 20,-4 10,-3 10,-5 0,-1 4,-4 4,-2 6,-6 2,-4 3,-4 1,0 3,-4 1,-3 2,-3 1,0 4,-9 4,-9 5,-9 1,0 6,-17 5,-17 6,-18 2,-1 7,-24 6,-24 12,-55 6,-31 7,-44 l 1,-12 h 3 l 3,1 h 1 q 0,0 0,1 1,0 12,6 11,6 21,7 10,0 18,-2 9,-2 15,-6 6,-4 9,-9 2,-5 3,-12 1,-7 -1,-11 -2,-4 -6,-11 -6,-7 -7,-10 -1,-3 -2,-3 -1,0 -5,-4 -5,-4 -6,-6 -1,-3 -2,-3 -2,-1 -5,-4 -3,-3 -5,-6 -1,-3 -2,-3 -1,0 -6,-6 -4,-4 -8,-15 -5,-10 -6,-10 -1,0 -2,-4 -2,-4 -6,-21 -4,-17 -5,-17 -1,0 -7,-27 -5,-26 -6,-26 -1,0 -2,-4 -1,-5 -2,-5 -1,0 -4,-7 -2,-6 -4,-6 -1,-1 -1,-2 -1,-1 -4,-4 -4,-4 -10,-8 -6,-5 -6,-6 -1,-1 -4,-4 -3,-2 -9,-6 -6,-3 -6,-4 0,-1 -6,-5 -6,-5 -8,-7 -1,-3 -2,-3 -2,-1 -4,-2 -1,-1 -8,-11 -6,-10 -7,-10 -1,0 -6,-8 -5,-7 -6,-7 -1,-1 -3,-5 -1,-4 -2,-4 -2,0 -2,-1 0,-1 -8,-11 -8,-11 -10,-13 -2,-2 -7,-11 -5,-8 -8,-11 -3,-3 -6,-5 -3,-2 -8,-4 -4,-2 -11,-6 -6,-4 -17,-8 -10,-4 -13,-7 -2,-3 -4,-3 h -1 l -1,-1 -2,-1 h -4 v 4 h 1 l 1,1 1,1 h 2 l 21,12 q 22,12 29,17 7,5 17,19 10,14 18,24 9,12 13,17 5,5 11,17 8,11 20,24 13,12 24,22 11,8 21,18 9,10 13,16 4,5 8,24 4,20 12,48 6,27 14,41 6,14 13,23 6,10 21,24 14,16 17,20 3,4 3,14 0,9 -3,11 -2,3 -7,5 -5,2 -16,1 -11,-1 -23,-6 -12,-5 -18,-12 -7,-6 -9,-49 -4,-43 -4,-46 0,-4 -1,-8 l -1,-4 v -1 h -1 v -1 h -2 v 1 h -1 v 67 q 2,65 0,79 -2,14 -16,66 -12,52 -16,64 -4,12 -8,19 -3,8 -8,14 -5,6 -12,11 -6,5 -10,5 -4,2 -11,2 h -7 v -1 l -1,-1 -1,-1 v -5 q 0,-6 2,-14 0,-9 3,-58 3,-48 3,-118 v -71 h -1 v -1 h -7 v 1 l -1,1 -1,1 -2,70 q -2,70 -4,107 -2,37 -6,66 -4,28 -8,40 -4,12 -8,17 -4,5 -12,7 -8,4 -16,4 -8,0 -14,-4 -5,-4 -9,-9 -3,-6 -7,-17 -4,-12 0,-84 4,-71 4,-94 2,-23 1,-56 -1,-34 -3,-48 -4,-15 -5,-18 -1,-4 -2,-6 l -1,-1 v -2 h -1 v -1 h -7 v 8 q 0,6 4,21 2,15 2,49 0,34 -4,99 -4,65 -6,86 -2,21 -5,29 -3,8 -8,12 -5,4 -9,6 -5,2 -14,1 -8,-1 -11,-3 -3,-2 -7,-6 -4,-5 -5,-11 -1,-6 -1,-60 0,-54 0,-89 2,-36 2,-48 2,-13 1,-42 -1,-29 -3,-37 -2,-7 -6,-16 -4,-8 -4,-9 v -1 h -1 v -1 h -1 v -1 h -1 v -1 h -5 v 1 h -1 v 1 h -1 v 8 q 0,2 4,12 4,10 6,26 2,15 -2,91 -4,76 -6,81 0,4 -3,6 -2,2 -11,3 -10,1 -14,-1 -4,-2 -8,-8 -4,-6 -6,-13 -2,-7 -2,-47 0,-39 0,-68 2,-29 0,-42 -2,-12 -2,-52 0,-40 6,-62 6,-22 13,-39 7,-17 11,-27 2,-10 3,-20 l 1,-9 -1,-1 -1,-2 -1,-1 h -1 l -2,4 q -1,5 -5,4 -3,-1 -11,-8 -8,-7 -20,-18 -11,-11 -28,-29 -16,-17 -34,-42 -18,-25 -22,-34 -4,-10 -6,-26 -4,-16 -3,-30 1,-15 5,-30 6,-14 8,-18 2,-4 4,-5 2,-1 3,-1 h 1 v -1 h 1 q 0,-1 1,-2 l 2,-1 q 0,-1 1,-2 z"
     fill="#070707"
     stroke="#070707"
     id="path3"
     style="fill-rule:evenodd" />
  <path
     d="m 267.6654,120 h -1 l -2,1 q -1,1 -1,2 h -1 v 1 h -1 q -1,0 -3,1 -2,1 -4,5 -2,4 -8,18 -4,15 -5,30 -1,14 3,30 2,16 6,26 4,9 22,34 18,25 34,42 17,18 28,29 12,11 20,18 8,7 11,8 4,1 5,-4 l 2,-4 h 1 l 1,1 1,2 1,1 -1,9 q -1,10 -3,20 -4,10 -11,27 -7,17 -13,39 -6,22 -6,62 0,40 2,52 2,13 0,42 0,29 0,68 0,40 2,47 2,7 6,13 4,6 8,8 4,2 14,1 9,-1 11,-3 3,-2 3,-6 2,-5 6,-81 4,-76 2,-91 -2,-16 -6,-26 -4,-10 -4,-12 v -8 h 1 v -1 h 1 v -1 h 5 v 1 h 1 v 1 h 1 v 1 h 1 v 1 q 0,1 4,9 4,9 6,16 2,8 3,37 1,29 -1,42 0,12 -2,48 0,35 0,89 0,54 1,60 1,6 5,11 4,4 7,6 3,2 11,3 9,1 14,-1 4,-2 9,-6 5,-4 8,-12 3,-8 5,-29 2,-21 6,-86 4,-65 4,-99 0,-34 -2,-49 -4,-15 -4,-21 v -8 h 7 v 1 h 1 v 2 l 1,1 q 1,2 2,6 1,3 5,18 2,14 3,48 1,33 -1,56 0,23 -4,94 -4,72 0,84 4,11 7,17 4,5 9,9 6,4 14,4 8,0 16,-4 8,-2 12,-7 4,-5 8,-17 4,-12 8,-40 4,-29 6,-66 2,-37 4,-107 l 2,-70 1,-1 1,-1 v -1 h 7 v 1 h 1 v 71 q 0,70 -3,118 -3,49 -3,58 -2,8 -2,14 v 5 l 1,1 1,1 v 1 h 7 q 7,0 11,-2 4,0 10,-5 7,-5 12,-11 5,-6 8,-14 4,-7 8,-19 4,-12 16,-64 14,-52 16,-66 2,-14 0,-79 v -67 h 1 v -1 h 2 v 1 h 1 v 1 l 1,4 q 1,4 1,8 0,3 4,46 2,43 9,49 6,7 18,12 12,5 23,6 11,1 16,-1 5,-2 7,-5 3,-2 3,-11 0,-10 -3,-14 -3,-4 -17,-20 -15,-14 -21,-24 -7,-9 -13,-23 -8,-14 -14,-41 -8,-28 -12,-48 -4,-19 -8,-24 -4,-6 -13,-16 -10,-10 -21,-18 -11,-10 -24,-22 -12,-13 -20,-24 -6,-12 -11,-17 -4,-5 -13,-17 -8,-10 -18,-24 -10,-14 -17,-19 -7,-5 -29,-17 l -21,-12 h -2 l -1,-1 -1,-1 h -3 l -1,-1 -1,-1 h -2 l -19,-8 q -19,-8 -29,-12 -10,-4 -12,-5 -2,-1 0,-5 0,-4 -8,-16 -10,-11 -16,-17 -6,-6 -14,-16 -8,-9 -17,-16 -9,-7 -18,-12 -9,-5 -14,-7 -5,-2 -19,-1 -13,1 -20,3 -8,4 -9,4 z m 112,174 -1,1 v 7 h 3 v -1 h 1 v -3 l 1,-1 1,-1 v -2 q 0,-1 2,-4 2,-4 8,-8 l 5,-4 3,-2 q 2,-1 2,-3 0,-1 -4,0 -5,1 -9,5 -5,3 -8,8 -3,6 -4,8 z"
     fill="#fdfdfd"
     stroke="#fdfdfd"
     id="path4"
     style="fill-rule:evenodd" />
  <path
     d="m 267.6654,115 v 3 q -1,1 -1,2 h 1 q 1,0 9,-4 7,-2 20,-3 14,-1 19,1 5,2 14,7 9,5 18,12 9,7 17,16 8,10 14,16 6,6 16,17 8,12 8,16 -2,4 0,5 2,1 12,5 10,4 29,12 l 19,8 h 2 l 1,1 1,1 h 2 v -4 h 1 l -2,-1 -2,-1 h -2 l -2,-1 q -1,-1 -2,-2 0,-1 -16,-7 -16,-6 -17,-8 -1,-2 -6,-6 -6,-5 -19,-20 -14,-16 -16,-18 -3,-2 -2,-3 0,-1 -3,-3 -2,-1 -4,-4 -2,-3 -3,-3 -1,0 -5,-6 -5,-5 -9,-9 -5,-3 -5,-4 0,-1 -7,-5 -7,-4 -16,-9 -9,-6 -15,-7 -6,-1 -20,-1 -14,2 -22,4 -7,2 -7,3 z"
     fill="#0c0c0c"
     stroke="#0c0c0c"
     id="path5"
     style="fill-rule:evenodd" />
</svg>
