<?xml version="1.0" encoding="UTF-8" standalone="no"?>
<svg
   viewBox="0 0 1000 1000"
   version="1.1"
   id="svg9"
   sodipodi:docname="scissors.svg"
   inkscape:version="1.3.1 (9b9bdc1480, 2023-11-25, custom)"
   xmlns:inkscape="http://www.inkscape.org/namespaces/inkscape"
   xmlns:sodipodi="http://sodipodi.sourceforge.net/DTD/sodipodi-0.dtd"
   xmlns="http://www.w3.org/2000/svg"
   xmlns:svg="http://www.w3.org/2000/svg">
  <defs
     id="defs9" />
  <sodipodi:namedview
     id="namedview9"
     pagecolor="#ffffff"
     bordercolor="#000000"
     borderopacity="0.25"
     inkscape:showpageshadow="2"
     inkscape:pageopacity="0.0"
     inkscape:pagecheckerboard="0"
     inkscape:deskcolor="#d1d1d1"
     showgrid="false"
     inkscape:zoom="1.3371389"
     inkscape:cx="677.94003"
     inkscape:cy="589.69191"
     inkscape:window-width="3840"
     inkscape:window-height="2091"
     inkscape:window-x="0"
     inkscape:window-y="0"
     inkscape:window-maximized="1"
     inkscape:current-layer="svg9" />
  <g
     fill="#fdfdfd"
     stroke="#fdfdfd"
     id="g2"
     style="fill-rule:evenodd">
    <path
       d="m 469,591 q 1,-1 3,-1 3,0 5,7 3,7 6,21 3,15 3,30 -2,14 -4,22 -2,9 -12,44 -12,34 -14,45 -2,11 -2,35 -2,23 -4,39 -2,16 -6,26 -4,9 -8,14 -4,5 -12,9 -8,6 -18,5 -9,-1 -18,-4 -10,-3 -11,-6 -1,-2 -1,-21 0,-19 1,-48 1,-30 5,-72 4,-42 6,-48 2,-6 15,-11 13,-5 19,-11 6,-7 11,-15 5,-8 9,-19 4,-11 14,-25 12,-14 13,-16 z"
       id="path1" />
    <path
       d="m 384,104 h 7 l 2,1 h 3 l 13,4 q 13,3 31,13 17,10 19,12 2,2 2,3 h 1 v 1 h 1 v 1 h 1 v 1 h 1 v 1 h 1 v 1 h 1 l 1,1 q 0,1 0,1 h 1 v 1 h 1 v 1 l 7,6 q 7,6 14,14 7,8 11,20 6,13 6,14 0,0 0,1 h 1 v 1 l 1,1 v 1 q 0,1 1,1 l 5,19 q 4,20 4,38 v 21 h -3 l -3,-1 h -1 v -1 h -1 q 0,-1 -5,-5 l -5,-4 h -1 v -1 h -1 v -1 h -1 v -1 h -1 v -1 h -1 l -1,-1 h -1 v 1 l 1,2 v 1 h 1 v 1 h 1 v 1 h 1 v 1 h 1 l 6,6 q 5,4 6,5 1,0 4,3 2,2 7,5 5,3 16,12 12,9 43,27 30,19 39,27 8,7 15,13 7,6 17,14 9,8 15,18 6,9 9,18 3,9 7,40 2,32 5,53 3,21 2,35 -1,14 -4,24 -3,10 -10,28 -7,19 -12,42 -5,22 -9,24 -3,2 -9,1 -6,-1 -12,-4 -6,-3 -11,-11 -6,-8 -10,-18 -4,-11 -4,-26 -2,-14 1,-24 3,-10 4,-14 1,-3 -1,-11 -2,-8 -9,-37 -7,-30 -12,-37 -4,-7 -4,-7 h -1 v -2 h -1 v -1 h -1 v -1 h -1 l -1,-1 -1,-1 h -1 v 1 h -1 v 1 h -1 v 2 l 1,1 1,1 v 1 l 3,5 q 3,5 3,6 v 2 l 1,3 v 3 h -5 v -1 h -1 v -1 h -1 q -1,0 -8,-3 -7,-3 -23,-3 -16,0 -19,0 -4,2 -10,6 -6,4 -10,9 -5,5 -8,6 -2,1 -5,-3 l -3,-2 h -4 v 5 l 1,1 q 1,1 1,2 0,1 0,8 0,6 -4,16 -4,10 -12,23 -8,13 -13,17 -4,4 -10,12 -6,8 -11,9 -6,1 -7,1 -1,1 -1,6 -2,5 -4,14 -2,9 -9,22 -7,14 -15,18 -8,4 -18,6 -11,2 -23,0 -12,-2 -18,-5 -5,-4 -9,-10 -2,-6 -2,-14 2,-8 10,-23 8,-14 15,-24 7,-9 13,-28 8,-19 9,-31 1,-12 6,-32 5,-20 5,-35 0,-14 0,-23 2,-9 5,-17 3,-7 9,-11 5,-5 11,-8 l 6,-3 1,-1 1,-1 h 2 v -2 l -1,-2 h -7 l -3,1 q -3,1 -5,1 -2,2 -9,7 l -6,6 h -1 v 1 h -1 v 1 h -1 v 1 h -2 l -1,1 h -2 v -7 l 1,-1 q 1,-1 7,-20 6,-19 14,-31 6,-12 16,-24 l 8,-13 h 1 v -1 h 1 v -2 l 1,-1 1,-1 v -2 h -6 v 1 h -1 v 1 h -1 v 1 h -1 v 1 h -1 l -11,16 q -12,16 -19,26 -6,11 -7,12 l -1,1 v 1 h -6 v -1 q 0,0 -18,-19 -18,-19 -25,-30 -7,-10 -11,-22 -6,-11 -12,-32 -8,-20 -12,-38 -4,-18 -5,-32 -1,-15 1,-25 2,-10 8,-27 8,-17 17,-28 l 9,-11 h 1 v -1 h 2 l 15,-2 q 15,-2 18,-2 3,0 8,0 z"
       id="path2" />
  </g>
  <path
     d="m 382,451 2,-3 2,2 q 0,1 0,14 0,13 -8,45 -8,32 -8,34 -2,2 -2,2 v 1 h -3 v -1 h -1 v -3 l -1,-2 q -1,-2 -1,-5 -2,-3 -2,-19 0,-15 6,-26 6,-12 10,-24 4,-12 6,-15 z"
     fill="#f7f7f7"
     stroke="#f7f7f7"
     id="path3"
     style="fill-rule:evenodd" />
  <path
     d="m 394,100 v -1 l 11,3 q 11,2 9,3 -2,1 4,1 6,0 16,6 11,6 18,10 6,4 5,5 -1,1 1,2 0,1 1,0 0,-1 1,-1 1,0 1,1 0,1 2,2 1,1 2,1 v 1 h 1 v 1 h 2 v 1 l 1,1 v 1 h -1 v 3 l -1,1 v 1 h -1 v -1 h -1 v -1 h -1 v -1 h -1 v -1 h -1 v -1 h -1 q 0,-1 -2,-3 -2,-2 -19,-12 -18,-10 -31,-13 l -13,-4 h -3 l -2,-1 h -3 l 3,-1 q 3,-1 2,-1 0,0 0,-1 z m 4,2 q -1,0 2,0 2,0 3,0 1,0 -1,0 -2,0 -4,0 z m 23,6 q 0,0 0,-1 1,0 1,1 z m 3,1 q -1,-1 0,-1 2,0 2,1 0,1 -2,0 z m 6,3 q 0,0 0,-1 0,-1 0,1 z m 2,1 q 0,-1 0,-1 z m 7,4 q 0,-1 0,-1 1,0 1,0 0,1 -1,1 z m 3,2 q 0,-1 1,-1 1,1 2,2 0,1 -1,0 -2,0 -2,-1 z m 5,4 q 0,-1 2,-1 2,1 2,2 0,1 -2,0 -2,0 -2,-1 z m 5,3 q 0,0 0,-1 0,-1 0,1 z m 12,9 q 0,-1 1,-1 1,1 2,2 0,1 -1,0 -2,0 -2,-1 z"
     fill="#141414"
     stroke="#141414"
     id="path4"
     style="fill-rule:evenodd" />
  <path
     d="m 505,530 3,-5 h 1 v -1 h 7 v 1 l 5,9 q 5,8 5,10 v 5 h -1 v 1 h -3 q -4,0 -10,0 h -7 v 1 h -1 v 2 h 1 v 1 h 4 l 7,4 q 8,2 11,8 3,6 4,8 1,3 1,6 v 4 l 1,1 1,1 h 4 l 1,-2 1,-2 v -1 l -1,-3 q -1,-4 -1,-8 -2,-4 0,-8 0,-3 5,-7 5,-3 11,-4 l 6,-1 h 8 v -2 h -1 l -1,-1 -2,-1 h -10 q -5,0 -7,0 -2,0 -7,1 -6,0 -12,-14 -6,-14 -6,-19 0,-5 2,-8 4,-3 12,-5 8,-3 19,-1 11,0 19,4 8,2 12,8 4,5 12,26 6,21 8,26 0,6 -2,14 -4,9 -4,24 0,16 -7,32 -7,16 -11,23 -4,7 -8,9 -5,2 -14,3 -9,1 -18,-2 -10,-3 -20,-9 -9,-6 -15,-12 -7,-6 -13,-33 -8,-27 -8,-34 -2,-7 1,-12 3,-5 9,-19 6,-13 9,-18 z"
     fill="#fcfcfc"
     stroke="#fcfcfc"
     id="path5"
     style="fill-rule:evenodd" />
  <path
     d="m 393,99 h 1 v 1 q 0,1 -1,1 l 2,1 q 1,2 1,2 0,0 0,1 h -1 v -1 q -1,0 -4,0 h -7 q -5,0 -8,0 -3,0 -18,2 l -15,2 h -2 v 1 h -2 v -1 h -1 v -2 l 1,-1 v -1 h 2 l 1,-1 2,-1 4,-1 q 5,-1 24,-1 20,0 21,-1 z m -41,3 q 2,0 1,0 -1,0 -3,0 -2,0 -1,0 1,0 3,0 z m -6,2 q 0,0 0,-1 0,-1 0,1 z m -5,2 q 0,0 0,-1 1,0 1,1 z"
     fill="#111111"
     stroke="#111111"
     id="path6"
     style="fill-rule:evenodd" />
  <path
     d="m 469,136 9,7 q 8,7 9,8 1,0 5,6 5,7 6,7 2,1 2,2 -1,2 0,2 1,0 0,1 0,1 2,2 1,0 2,2 1,3 0,3 -1,0 0,1 0,1 1,0 1,0 3,7 3,6 2,6 0,1 0,1 2,0 2,2 2,2 2,3 v 1 l 1,1 1,1 v 2 h -2 v 1 l -1,2 v 1 h -2 v -1 l -1,-2 v -1 h -1 v -1 h -1 q 0,-1 -6,-14 -4,-12 -11,-20 -7,-8 -14,-14 l -7,-6 v -1 h -1 v -1 h -1 q 0,0 0,-1 l -1,-1 v -1 l 1,-1 v -3 h 1 z m 1,4 q 0,0 0,-1 0,-1 0,1 z m 2,2 q 0,-1 1,0 1,0 2,1 0,1 -1,1 -2,-1 -2,-2 z m 10,9 q 0,-1 1,-1 1,0 1,1 0,1 -1,1 -1,0 -1,-1 z m 3,2 q 0,-1 1,-1 2,1 2,2 0,1 -1,0 -1,0 -2,-1 z m 4,4 q 0,-1 1,-1 1,0 1,1 0,1 -1,1 -1,0 -1,-1 z m 3,4 q 0,-1 1,-1 1,0 1,1 0,1 -1,1 -1,0 -1,-1 z m 5,6 q 0,-1 0,-1 1,0 1,0 0,1 -1,1 z m 4,7 q 0,0 0,-1 1,0 1,1 z m 4,8 q 0,0 0,-1 1,0 1,1 z m 6,14 q -1,-3 0,-3 1,0 2,3 1,3 0,3 -1,0 -2,-3 z"
     fill="#0e0e0e"
     stroke="#0e0e0e"
     id="path7"
     style="fill-rule:evenodd" />
  <path
     d="m 338,106 v 2 q -1,0 0,1 h 2 l -9,11 q -9,11 -17,28 -6,17 -8,27 -2,10 -1,25 1,14 5,32 4,18 12,38 6,21 12,32 4,12 11,22 7,11 25,30 18,19 18,19 v 1 h 6 v -1 l 1,-1 q 1,-1 7,-12 7,-10 19,-26 l 11,-16 h 1 v -1 h 1 v -1 h 1 v -1 h 1 v -1 h 6 v 2 l -1,1 -1,1 v 2 h -1 v 1 h -1 l -8,13 q -10,12 -16,24 -8,12 -14,31 -6,19 -7,20 l -1,1 v 7 h 2 l 1,-1 h 2 v -1 h 1 v -1 h 1 v -1 h 1 l 6,-6 q 7,-5 9,-7 2,0 5,-1 l 3,-1 h 7 l 1,2 v 2 h -2 l -1,1 -1,1 -6,3 q -6,3 -11,8 -6,4 -9,11 -3,8 -5,17 0,9 0,23 0,15 -5,35 -5,20 -6,32 -1,12 -9,31 -6,19 -13,28 -7,10 -15,24 -8,15 -10,23 0,8 2,14 4,6 9,10 6,3 18,5 12,2 23,0 10,-2 18,-6 8,-4 15,-18 7,-13 9,-22 2,-9 4,-14 0,-5 1,-6 1,0 7,-1 5,-1 11,-9 6,-8 10,-12 5,-4 13,-17 8,-13 12,-23 4,-10 4,-16 0,-7 0,-8 0,-1 -1,-2 l -1,-1 v -5 h 4 l 3,2 q 3,4 5,3 3,-1 8,-6 4,-5 10,-9 6,-4 10,-6 3,0 19,0 16,0 23,3 7,3 8,3 h 1 v 1 h 1 v 1 h 5 v -3 l -1,-3 v -2 q 0,-1 -3,-6 l -3,-5 v -1 l -1,-1 -1,-1 v -2 h 1 v -1 h 1 v -1 h 1 l 1,1 1,1 h 1 v 1 h 1 v 1 h 1 v 2 h 1 q 0,0 4,7 5,7 12,37 7,29 9,37 2,8 1,11 -1,4 -4,14 -3,10 -1,24 0,15 4,26 4,10 10,18 5,8 11,11 6,3 12,4 6,1 9,-1 4,-2 9,-24 5,-23 12,-42 7,-18 10,-28 3,-10 4,-24 1,-14 -2,-35 -3,-21 -5,-53 -4,-31 -7,-40 -3,-9 -9,-18 -6,-10 -15,-18 -10,-8 -17,-14 -7,-6 -15,-13 -9,-8 -39,-27 -31,-18 -43,-27 -11,-9 -16,-12 -5,-3 -7,-5 -3,-3 -4,-3 -1,-1 -6,-5 l -6,-6 h -1 v -1 h -1 v -1 h -1 v -1 h -1 v -1 l -1,-2 v -1 h 1 l 1,1 h 1 v 1 h 1 v 1 h 1 v 1 h 1 v 1 h 1 l 5,4 q 5,4 5,5 h 1 v 1 h 1 l 3,1 h 3 v -21 q 0,-18 -2,-28 -2,-11 -6,-21 l -2,-10 h -1 v -1 h -1 v -2 h 2 v 2 h 1 v 1 h 1 v 1 l 1,-1 1,-1 h 1 v -1 h 1 v 1 l 4,10 q 4,11 6,24 4,14 4,34 1,19 3,20 2,0 2,1 0,1 3,2 2,1 13,8 11,7 12,8 1,0 1,1 0,1 10,6 9,4 9,6 -1,1 0,2 1,1 1,0 1,0 16,8 14,8 29,20 15,12 15,13 0,1 1,1 1,0 1,1 -1,1 1,3 3,1 3,2 0,2 4,3 3,1 5,3 2,1 1,2 0,2 1,1 1,0 2,1 0,1 1,2 2,1 2,2 0,2 3,4 3,1 6,6 3,5 4,6 1,1 2,2 1,0 5,9 4,9 3,9 -1,-1 -1,0 0,1 2,1 1,0 1,2 l 1,2 v 5 l -1,-2 q -1,-1 -1,-3 v -2 17 l 1,2 1,2 v -5 h -1 v -1 h 1 q 0,-1 -1,-4 v -3 h 2 v 6 q 1,6 1,10 v 4 l -1,-3 -1,-2 v 4 q 0,4 1,3 1,-1 1,4 v 5 l -1,-2 -1,-3 v 10 l 1,-1 q 1,0 1,-2 0,-1 1,11 1,12 1,11 0,2 0,5 v 3 l 1,-3 1,-3 2,9 q 2,9 2,19 0,10 0,15 v 5 -8 8 q 0,9 0,12 0,2 -1,5 l -1,3 v 5 l 1,-2 q 1,-2 1,-4 v -2 9 q 0,2 -3,10 -3,9 -3,8 0,0 -1,2 -1,2 0,1 1,-1 -1,6 -2,7 -3,7 -1,-1 -1,-2 -1,0 -1,2 0,1 1,1 1,0 -4,13 -4,13 -5,13 -1,1 -1,2 0,1 -1,1 -1,1 0,4 1,2 0,2 -1,0 -1,1 0,1 0,2 -1,1 -2,5 0,5 -2,5 -1,-1 0,0 0,1 -1,9 -1,7 -3,11 -2,4 -7,9 -5,4 -14,4 -9,0 -16,-3 -7,-3 -9,-7 -2,-3 -4,-4 -1,0 -5,-4 -3,-4 -4,-6 -1,-3 -1,-3 -1,1 -3,-2 l -3,-3 v -2 h -1 v -1 h -1 v 2 l -1,1 q -1,1 -2,4 -1,3 -2,3 -1,0 -1,1 0,1 -2,1 -1,1 0,1 1,0 0,1 -2,0 -2,1 0,1 1,1 1,1 0,1 -1,0 -3,3 -1,3 -2,3 -1,0 -1,1 -1,1 -2,2 -2,1 -2,1 0,2 -3,4 -4,3 -12,5 -9,1 -18,1 -10,-2 -20,-6 -9,-4 -12,-6 -4,-3 -4,-4 -1,0 -3,0 -2,0 -5,-3 l -4,-3 h -2 l -1,3 q -1,3 -1,1 v -1 l -2,11 q -2,10 -2,9 0,-1 0,3 -2,5 -2,4 0,-2 -1,-1 -1,1 -1,3 v 6 -2 q 0,-1 1,-2 l 1,-1 v 4 l -1,1 q 0,2 -1,2 -2,0 -2,1 1,1 0,4 0,4 -8,25 -6,20 -7,20 -1,-1 -1,2 0,2 0,1 -1,-1 -1,0 -1,1 -1,8 0,7 -1,32 -1,25 -4,36 -3,11 -3,9 0,-3 -1,0 l -1,2 v 2 q 0,3 0,4 0,0 0,3 0,2 0,1 -1,0 -1,2 -1,3 0,2 1,-2 1,0 0,2 -2,2 -1,1 -1,4 0,2 -1,8 -2,5 -3,6 -2,1 -2,2 0,2 -1,2 -1,0 -2,2 -2,2 -6,6 -4,5 -9,9 -6,3 -26,4 -20,1 -25,-1 -6,-1 -6,-2 0,-1 -4,-2 -3,-2 -8,-8 -4,-6 -6,-11 -2,-6 0,-21 2,-14 2,-12 0,1 1,-5 1,-5 0,-5 -1,1 0,-24 v -25 h 1 l 1,1 h -1 v 7 l 1,-3 1,-3 v -5 q 0,-5 0,-6 0,-1 0,-1 -1,-1 0,-9 0,-9 1,-9 1,1 1,0 1,-1 0,-1 -1,0 0,-5 0,-5 1,-11 0,-7 1,-7 1,1 1,-1 1,-2 0,-1 -1,1 1,-9 0,-11 2,-24 1,-13 -12,-15 -12,-3 -19,-6 -7,-3 -7,-4 0,-1 0,-1 -1,-1 -1,-2 0,-1 -1,-1 -1,-1 -4,-4 -3,-3 -5,-9 -1,-5 -2,-11 0,-5 0,-7 -1,-1 1,-6 2,-5 6,-11 5,-7 6,-10 0,-3 10,-17 10,-14 11,-19 1,-6 -1,-12 -2,-6 -4,-11 0,-6 0,-7 0,-1 -1,-1 -1,-1 -1,-2 0,-1 1,-1 1,0 1,-1 0,-1 -1,-1 -1,1 -1,-3 -1,-4 0,-4 1,0 1,-2 -1,-1 -2,0 -1,0 -1,-2 0,-3 1,-3 1,0 1,-1 0,-1 -2,0 -1,0 -1,-4 0,-5 1,-5 2,0 2,-3 0,-2 -2,-2 -1,0 -1,-2 1,-1 2,-2 1,-2 1,-3 0,-2 1,-2 1,0 1,-1 0,-1 -1,-1 -1,0 5,-13 6,-12 7,-11 1,1 1,-1 0,-2 1,-6 1,-4 2,-5 2,-1 1,-1 -1,0 2,-9 4,-8 6,-12 2,-4 2,-7 1,-4 2,-4 0,-1 -1,-1 -1,0 -1,-1 1,-2 2,-1 0,1 1,-1 0,-2 -1,-2 -1,0 0,-2 0,-3 1,-3 1,0 2,-2 1,-2 1,-16 0,-14 -3,-19 -3,-4 -6,-6 -3,-2 -9,-7 -5,-4 -6,-8 -2,-4 -2,-3 0,1 -1,0 -1,-1 -2,-2 -2,-2 -4,-4 -2,-3 -3,-3 -1,-1 -1,-3 -1,-2 -1,-2 -1,0 -6,-7 -4,-7 -3,-7 1,0 -1,-1 -1,-1 -6,-12 -5,-11 -6,-11 -1,0 -2,-2 0,-3 0,-4 1,0 1,-1 -1,-1 -2,-1 -1,1 -5,-10 -4,-12 -6,-19 -1,-7 -1,-8 1,-1 -1,-1 -1,1 -1,0 0,-2 1,-2 1,0 0,-2 0,-2 -1,0 -1,1 -1,-2 -2,-2 -2,-9 -2,-7 -2,-6 0,1 -1,0 -1,-1 -1,-9 l -2,-9 1,3 1,2 v -4 q 0,-3 0,-28 v -25 l -1,3 -1,3 2,-7 q 0,-7 7,-22 7,-14 9,-17 2,-3 10,-9 7,-6 10,-8 2,0 1,-1 -1,-1 1,-2 1,-1 2,-1 z m -7,8 q 0,0 0,-1 1,0 1,1 z m -2,2 q 0,0 0,-1 1,0 1,1 z m -4,2 q 1,0 1,1 0,1 -1,1 -1,0 -1,-1 0,-1 1,-1 z m -4,5 q 0,-1 0,-1 1,0 1,0 0,1 -1,1 z m -2,2 q 0,-1 0,-1 1,0 1,0 0,1 -1,1 z m -4,3 q 1,0 1,1 0,1 -1,1 -1,0 -1,-1 0,-1 1,-1 z m -4,5 q 1,0 1,1 -1,2 -2,0 0,-1 1,-1 z m -4,8 q 2,-3 2,-2 1,1 -1,5 -2,4 -2,2 0,-2 1,-5 z m -4,10 q 0,-1 0,-1 1,0 1,0 0,1 -1,1 z m -2,5 q 0,0 0,-1 1,0 1,1 z m -1,2 q 0,-1 0,2 0,2 0,0 0,-1 0,-2 z m 220,58 -2,-2 -1,-3 q -1,-3 -1,-5 0,-2 2,4 2,7 2,6 z m 2,11 q 0,-2 1,-1 1,1 1,3 0,2 -1,1 -1,-1 -1,-3 z m 4,17 v 3 -7 q -2,-8 0,-4 0,4 0,8 z m -222,6 q 0,0 0,-1 0,-1 0,1 z m 224,12 v -10 34 -8 q 0,-7 0,-16 z m -218,6 q -2,-5 0,-3 0,2 0,5 0,2 0,-2 z m 2,6 q 0,-1 0,2 2,4 1,4 0,0 0,-1 -1,0 -1,-1 0,-2 0,-4 z m 218,17 q 0,-1 0,-1 z m 2,1 q 0,0 0,-1 0,-1 0,1 z m 6,3 q 0,-1 1,-1 1,0 1,1 0,1 -1,1 -1,0 -1,-1 z m 4,4 q 0,-1 3,1 3,1 4,2 0,1 -3,0 -4,-2 -4,-3 z m 8,5 q 0,0 0,-1 0,-1 0,1 z m 3,2 q 0,-1 1,-1 1,0 1,1 0,1 -1,1 -1,0 -1,-1 z m 3,2 q 0,-1 2,0 1,0 0,1 -2,0 -2,-1 z m 5,3 q 0,-1 0,-1 1,0 1,0 0,1 -1,1 z m -233,1 q 0,-1 1,0 1,2 0,2 -1,0 -1,-2 z m 237,2 q 0,-1 1,0 2,0 0,1 -1,0 -1,-1 z m -235,2 q 0,-1 1,-1 0,1 0,1 1,0 1,2 0,1 -1,1 0,-1 0,-1 -1,0 -1,-2 z m 239,0 q 0,0 0,-1 1,0 1,1 z m 2,1 q 0,-1 0,-1 1,0 1,0 0,1 -1,1 z m 3,2 q 0,-1 2,0 1,1 0,1 -2,0 -2,-1 z m -242,2 q 0,-1 0,-1 z m 246,0 q 0,-1 2,0 1,1 0,1 -2,0 -2,-1 z m -245,2 q 0,-1 0,-1 1,0 1,0 0,1 -1,1 z m 252,3 q 0,-1 1,-1 1,0 1,1 0,1 -1,1 -1,0 -1,-1 z m 3,2 q 0,0 0,-1 0,-1 0,1 z m 2,1 q 0,-1 0,-1 z m -252,3 q -2,-3 0,-2 2,2 2,4 1,2 0,2 -1,0 -2,-4 z m 254,-2 q 0,-1 1,-1 1,0 1,1 0,1 -1,1 -1,0 -1,-1 z m 3,2 q 0,0 0,-1 1,0 1,1 z m 10,5 q 0,-1 0,-1 1,0 1,0 0,1 -1,1 z m -264,1 q 0,-1 1,-1 1,0 1,1 0,1 -1,1 -1,0 -1,-1 z m 266,0 q 0,-1 1,-1 1,0 1,1 0,1 -1,1 -1,0 -1,-1 z m 3,2 q 0,0 0,-1 0,-1 0,1 z m 3,2 q 0,-1 2,0 1,1 2,2 0,1 -2,0 -1,-1 -2,-2 z m -267,3 q 0,-1 0,-1 z m 272,1 q 0,0 0,-1 0,-1 0,1 z m 2,1 q 0,-1 1,-1 1,1 2,2 0,1 -1,0 -2,0 -2,-1 z m 10,9 q 0,-1 2,0 2,1 2,2 0,1 -2,0 -2,-1 -2,-2 z m 6,5 q 0,-1 2,0 2,1 2,2 0,1 -2,0 -2,-1 -2,-2 z m -274,2 q 0,-1 0,-1 z m 3,2 q 0,-1 1,-1 1,0 1,1 0,1 -1,1 -1,0 -1,-1 z m 278,3 q 0,0 0,-1 1,0 1,1 z m -273,2 q 0,0 0,-1 0,-1 0,1 z m 4,1 q -2,-1 0,-1 1,0 1,1 0,1 -1,0 z m 277,5 q 0,0 0,-1 1,0 1,1 z m 3,2 q 0,0 0,-1 0,-1 0,1 z m 3,2 q 0,-1 1,-1 1,0 1,1 0,1 -1,1 -1,0 -1,-1 z m -273,14 v 7 l -1,-9 q -1,-9 0,-9 1,0 1,2 0,2 0,9 z m 284,-3 q 0,-1 1,-1 1,1 2,2 0,1 -1,0 -2,0 -2,-1 z m -289,29 q 1,0 1,0 z m -10,33 q 3,-5 1,0 -1,5 -2,5 -1,0 1,-5 z m 13,-2 2,-3 2,2 q 0,1 0,14 0,13 -8,45 -8,32 -8,34 -2,2 -2,2 v 1 h -3 v -1 h -1 v -3 l -1,-2 q -1,-2 -1,-5 -2,-3 -2,-19 0,-15 6,-26 6,-12 10,-24 4,-12 6,-15 z m -17,12 q 1,0 1,1 0,1 -1,2 -1,1 -1,-1 0,-2 1,-2 z m 327,9 q 0,-1 1,-1 1,0 1,4 0,4 -1,1 -1,-3 -1,-4 z m -333,7 q 1,0 1,1 0,1 -1,1 -1,0 -1,-1 0,-1 1,-1 z m -2,3 q 1,0 1,0 z m -1,2 q 0,0 1,0 1,0 -1,0 z m -1,2 q 1,0 1,2 -1,3 -2,3 -1,0 0,-3 0,-2 1,-2 z m 150,44 3,-5 h 1 v -1 h 7 v 1 l 5,9 q 5,8 5,10 v 5 h -1 v 1 h -3 q -4,0 -10,0 h -7 v 1 h -1 v 2 h 1 v 1 h 4 l 7,4 q 8,2 11,8 3,6 4,8 1,3 1,6 v 4 l 1,1 1,1 h 4 l 1,-2 1,-2 v -1 l -1,-3 q -1,-4 -1,-8 -2,-4 0,-8 0,-3 5,-7 5,-3 11,-4 l 6,-1 h 8 v -2 h -1 l -1,-1 -2,-1 h -10 q -5,0 -7,0 -2,0 -7,1 -6,0 -12,-14 -6,-14 -6,-19 0,-5 2,-8 4,-3 12,-5 8,-3 19,-1 11,0 19,4 8,2 12,8 4,5 12,26 6,21 8,26 0,6 -2,14 -4,9 -4,24 0,16 -7,32 -7,16 -11,23 -4,7 -8,9 -5,2 -14,3 -9,1 -18,-2 -10,-3 -20,-9 -9,-6 -15,-12 -7,-6 -13,-33 -8,-27 -8,-34 -2,-7 1,-12 3,-5 9,-19 6,-13 9,-18 z m 195,-18 v 14 q 0,2 0,-7 -2,-9 -2,-15 -1,-6 0,-6 1,0 1,2 1,1 1,12 z m -347,43 q 1,0 1,0 0,1 0,1 -1,0 -1,-1 z m 3,13 q 0,-7 0,-5 2,2 2,7 0,5 -2,-2 z m 342,3 q 0,0 0,3 0,3 0,1 0,-2 0,-3 0,-2 0,-2 z m -343,8 q 1,-3 1,-1 0,3 -2,4 -1,0 1,-3 z m 341,0 q 0,-1 0,-1 z m -3,9 q 1,0 0,3 -1,3 -1,0 0,-3 1,-3 z m -224,3 q 1,-1 3,-1 3,0 5,7 3,7 6,21 3,15 3,30 -2,14 -4,22 -2,9 -12,44 -12,34 -14,45 -2,11 -2,35 -2,23 -4,39 -2,16 -6,26 -4,9 -8,14 -4,5 -12,9 -8,6 -18,5 -9,-1 -18,-4 -10,-3 -11,-6 -1,-2 -1,-21 0,-19 1,-48 1,-30 5,-72 4,-42 6,-48 2,-6 15,-11 13,-5 19,-11 6,-7 11,-15 5,-8 9,-19 4,-11 14,-25 12,-14 13,-16 z m -126,4 q 1,0 1,0 0,1 0,1 -1,0 -1,-1 z m -1,2 q 0,0 1,0 0,1 -1,1 z m -2,3 q 0,0 1,0 1,0 -1,0 z m 347,2 q 0,-1 1,-1 1,1 1,1 -1,0 -1,1 0,1 -1,-1 z m -348,0 q 1,0 1,1 0,1 -1,1 -1,0 -1,-1 0,-1 1,-1 z m -2,3 q 1,0 1,1 0,1 -1,1 -1,0 -1,-1 0,-1 1,-1 z m 346,10 q 0,-1 0,-1 1,0 1,0 0,1 -1,1 z m -351,0 q 0,0 1,0 0,1 -1,1 z m -2,3 q 1,0 1,1 -1,1 -2,1 -1,1 -1,0 1,-2 2,-2 z m -3,4 q 1,0 1,0 z m -1,2 q 1,0 1,1 0,1 -1,1 -1,0 -1,-1 0,-1 1,-1 z m 275,18 q 1,-1 2,0 1,0 -1,1 -1,0 -2,5 -2,5 -3,5 -1,0 1,-5 2,-6 3,-6 z m -279,4 q 0,0 1,0 1,0 -1,0 z m 284,1 q 0,0 1,0 0,1 -1,1 z m 1,2 q 1,0 1,0 0,1 0,1 -1,0 -1,-1 z m 66,1 q -1,0 -1,2 0,3 1,2 1,-2 1,-4 0,-1 -1,-1 z m -349,7 q 0,-1 2,0 2,1 2,2 0,1 -2,0 -2,-1 -2,-2 z m 347,0 q 0,-1 0,-1 1,0 1,0 0,1 -1,1 z m -169,1 q -2,0 0,-1 1,0 1,1 0,1 -1,0 z m 111,0 q 0,-1 2,0 1,1 2,2 0,1 -2,0 -1,-1 -2,-2 z m 56,6 q -1,5 -2,5 -1,0 1,-5 2,-5 1,0 z m -165,-5 q 0,0 1,0 0,1 -1,1 z m -176,3 q 0,-1 1,-1 1,0 1,1 0,1 -1,1 -1,0 -1,-1 z m 179,0 q 0,-1 1,0 2,0 2,1 0,1 -1,1 -1,-1 -2,-2 z m 111,1 q 0,0 1,0 0,1 -1,1 z m -102,4 q 0,0 1,0 0,1 -1,1 z m 2,1 q 0,0 1,0 1,0 -1,0 z m 106,1 q 0,-1 1,-1 1,0 1,1 0,1 -1,1 -1,0 -1,-1 z m -104,1 q 0,-1 1,-1 1,0 1,1 0,1 -1,1 -1,0 -1,-1 z m -182,2 q 0,-1 1,-1 1,0 1,1 0,1 -1,1 -1,0 -1,-1 z m 290,1 q 0,-1 1,-1 1,0 1,1 0,1 -1,1 -1,0 -1,-1 z m -287,0 q 1,0 1,0 0,1 0,1 -1,0 -1,-1 z m 322,0 q 1,0 1,1 0,1 -2,2 -1,0 0,-1 0,-1 1,-2 z m -320,2 q 0,-1 3,0 2,1 0,1 -3,0 -3,-1 z m 288,-1 q 1,0 1,0 z m -100,1 q 1,0 1,0 0,1 0,1 -1,0 -1,-1 z m 47,0 q 0,0 1,0 0,1 -1,1 z m 55,1 q 0,-1 3,0 2,2 0,1 -3,0 -3,-1 z m -100,0 q 1,0 1,0 z m 43,0 q 1,0 1,1 0,1 -1,1 -1,0 -1,-1 0,-1 1,-1 z m 82,1 q 1,0 1,1 0,1 -1,1 -1,0 -1,-1 0,-1 1,-1 z m -302,2 q -2,-1 0,-1 3,0 6,1 2,1 -2,1 -3,0 -4,-1 z m 200,1 h 10 l 4,-1 q 4,-1 2,0 l -1,1 h -1 q -2,0 -6,1 -5,1 -14,-1 -9,0 -6,0 3,0 12,0 z m 84,-1 q -1,-1 5,1 6,0 4,0 -2,0 -5,0 -2,0 -4,-1 z m -148,7 q 0,0 1,0 1,0 -1,0 z m -118,12 q 0,-2 1,0 0,1 -1,1 -1,0 0,-1 z m 113,8 q 1,-2 1,0 0,1 -1,1 -1,0 0,-1 z m -2,2 q 1,0 1,0 z m -115,17 q 0,0 1,0 0,1 -1,1 z m 108,4 q 0,0 1,0 0,1 -1,1 z m -1,2 q 1,0 1,0 0,1 0,1 -1,0 -1,-1 z m -109,12 v -9 8 q 0,9 -1,10 -1,0 1,-9 z m 106,-1 q 0,0 1,0 1,0 -1,0 z m -5,26 -1,2 1,-5 q 1,-5 1,-1 0,3 -1,4 z m -2,8 1,-5 v 11 q 0,12 0,22 0,9 -1,12 l -1,2 v 5 -9 q 0,-3 0,-18 v -16 z m -106,18 q 0,-1 1,-1 1,0 1,3 -1,3 -1,1 0,-2 -1,-3 z m 2,15 q 1,-2 1,3 0,4 -1,2 -1,-3 0,-5 z m 101,15 q 0,0 1,0 1,0 -1,0 z m -1,4 q 1,-2 1,0 0,3 -1,4 -1,2 -1,0 0,-3 1,-4 z m -104,17 q 0,-1 1,-1 1,0 1,2 -1,2 -1,1 0,-1 -1,-2 z m -1,14 q 0,0 1,0 0,1 -1,1 z m 1,15 -1,-2 v -2 q 0,-3 1,-2 1,2 1,6 0,3 -1,0 z m 93,-2 q 0,0 1,0 1,0 -1,0 z m -90,8 q 0,0 1,0 1,0 -1,0 z m 1,3 q 0,-1 1,-1 1,0 1,1 0,1 -1,1 -1,0 -1,-1 z m 71,9 2,-3 3,-3 q 4,-3 -1,2 -4,6 -5,6 -1,0 1,-2 z m -68,-5 q -1,-2 0,-1 2,0 1,1 0,1 -1,0 z m 6,5 q -1,0 0,-1 2,0 2,1 0,1 -2,0 z m 58,2 q 0,0 1,0 1,0 -1,0 z m -52,2 q -1,0 7,1 8,1 7,1 -2,0 -6,0 -3,0 -4,-1 -2,-1 -4,-1 z m 49,0 q 1,0 1,0 z m -3,1 q 2,1 0,1 -1,1 -1,0 0,-1 1,-1 z"
     fill="#070707"
     stroke="#070707"
     id="path8"
     style="fill-rule:evenodd" />
</svg>
